# xmcd CD database file
#
# Track frame offsets:
#	187
#	14782
#	29077
#	42605
#	57317
#	71535
#	85195
#	98360
#	111680
#	124677
#	137330
#	149540
#
# Disc length: 2188 seconds
#
# Revision: 0
# Processed by: cddbd v1.4PL0 Copyright (c) Steve Scherf et al.
# Submitted via: CDex 1.50beta10
#
DISCID=b2088a0c
DTITLE=Art Blakey - Blakey feat. Art Blakey
DYEAR=1900
DGENRE=Jazz
TTITLE0=In the Basement
TTITLE1=Try a little Tenderness
TTITLE2=Little Girl Blue
TTITLE3=On the Roof
TTITLE4=Minority
TTITLE5=Salute to Birdland
TTITLE6=Eleanor
TTITLE7=Futurity
TTITLE8=Simplicity
TTITLE9=Strictly Romantic
TTITLE10=Hello
TTITLE11=Mirah
EXTD=
EXTT0=
EXTT1=
EXTT2=
EXTT3=
EXTT4=
EXTT5=
EXTT6=
EXTT7=
EXTT8=
EXTT9=
EXTT10=
EXTT11=
PLAYORDER=
